<svg width="19" height="18" viewBox="0 0 19 18" fill="none" xmlns="http://www.w3.org/2000/svg">
<path d="M11.7188 15.5C11.8734 15.5 12 15.6055 12 15.7344V16.5156C12 16.6445 11.8734 16.75 11.7188 16.75H0.28125C0.126563 16.75 0 16.6445 0 16.5156V9.48438C0 9.35547 0.126563 9.25 0.28125 9.25H1.21875C1.37344 9.25 1.5 9.35547 1.5 9.48438V15.5H11.7188ZM8.73516 11.1152L6.75 12.2188L4.75078 9.99805C4.63125 9.86523 4.3875 9.875 4.28438 10.0176L2.25 12.8438V14.875H11.25L9.14297 11.207C9.06797 11.0801 8.87578 11.0371 8.73516 11.1152Z" fill="white"/>
<g clip-path="url(#clip0_30_455)">
<path d="M13 0.1875C9.78977 0.1875 7.1875 2.78977 7.1875 6C7.1875 9.21023 9.78977 11.8125 13 11.8125C16.2102 11.8125 18.8125 9.21023 18.8125 6C18.8125 2.78977 16.2102 0.1875 13 0.1875ZM13 10.3125C10.6166 10.3125 8.6875 8.38383 8.6875 6C8.6875 3.61664 10.6162 1.6875 13 1.6875C15.3834 1.6875 17.3125 3.61617 17.3125 6C17.3125 8.38336 15.3838 10.3125 13 10.3125ZM13 3C11.3432 3 10 4.3432 10 6C10 7.6568 11.3432 9 13 9C14.6568 9 16 7.6568 16 6C16 4.3432 14.6568 3 13 3ZM13 7.5C12.1729 7.5 11.5 6.82711 11.5 6C11.5 5.17289 12.1729 4.5 13 4.5C13.8271 4.5 14.5 5.17289 14.5 6C14.5 6.82711 13.8271 7.5 13 7.5Z" fill="white"/>
</g>
<defs>
<clipPath id="clip0_30_455">
<rect width="12" height="12" fill="white" transform="translate(7)"/>
</clipPath>
</defs>
</svg>
