<svg width="18" height="18" viewBox="0 0 18 18" fill="none" xmlns="http://www.w3.org/2000/svg">
<g clip-path="url(#clip0_28_305)">
<path d="M15 14V14.5C15 15.3284 14.3284 16 13.5 16H1.5C0.671562 16 0 15.3284 0 14.5V6.5C0 5.67156 0.671562 5 1.5 5H2V11.5C2 12.8785 3.1215 14 4.5 14H15ZM18 11.5V3.5C18 2.67156 17.3284 2 16.5 2H4.5C3.67156 2 3 2.67156 3 3.5V11.5C3 12.3284 3.67156 13 4.5 13H16.5C17.3284 13 18 12.3284 18 11.5ZM8 5C8 5.82844 7.32844 6.5 6.5 6.5C5.67156 6.5 5 5.82844 5 5C5 4.17156 5.67156 3.5 6.5 3.5C7.32844 3.5 8 4.17156 8 5ZM5 9.5L6.73484 7.76516C6.88128 7.61872 7.11872 7.61872 7.26519 7.76516L8.5 9L12.7348 4.76516C12.8813 4.61872 13.1187 4.61872 13.2652 4.76516L16 7.5V11H5V9.5Z" fill="white"/>
</g>
<defs>
<clipPath id="clip0_28_305">
<rect width="18" height="18" fill="white"/>
</clipPath>
</defs>
</svg>
