<svg width="15" height="15" viewBox="0 0 15 15" fill="none" xmlns="http://www.w3.org/2000/svg">
<g clip-path="url(#clip0_29_584)">
<path d="M13.5938 0.9375H1.40625C0.629883 0.9375 0 1.56738 0 2.34375V12.6562C0 13.4326 0.629883 14.0625 1.40625 14.0625H13.5938C14.3701 14.0625 15 13.4326 15 12.6562V2.34375C15 1.56738 14.3701 0.9375 13.5938 0.9375ZM11.1445 9.44824C11.2852 9.58887 11.2852 9.81738 11.1445 9.95801L9.95801 11.1445C9.81738 11.2852 9.58887 11.2852 9.44824 11.1445L7.5 9.17871L5.55176 11.1445C5.41113 11.2852 5.18262 11.2852 5.04199 11.1445L3.85547 9.95801C3.71484 9.81738 3.71484 9.58887 3.85547 9.44824L5.82129 7.5L3.85547 5.55176C3.71484 5.41113 3.71484 5.18262 3.85547 5.04199L5.04199 3.85547C5.18262 3.71484 5.41113 3.71484 5.55176 3.85547L7.5 5.82129L9.44824 3.85547C9.58887 3.71484 9.81738 3.71484 9.95801 3.85547L11.1445 5.04199C11.2852 5.18262 11.2852 5.41113 11.1445 5.55176L9.17871 7.5L11.1445 9.44824Z" fill="white"/>
</g>
<defs>
<clipPath id="clip0_29_584">
<rect width="15" height="15" fill="white"/>
</clipPath>
</defs>
</svg>
